<svg id="Layer_1" data-name="Layer 1" xmlns="http://www.w3.org/2000/svg" viewBox="0 0 950 350"><path d="M140.31,239.1a60.27,60.27,0,0,1-7.62-120,57.33,57.33,0,0,1,26.29-27,88.77,88.77,0,1,0,35.28,157.27l-20.41-20.41A60,60,0,0,1,140.31,239.1Z" style="fill:#fff"/><path d="M196.28,92.61a57.71,57.71,0,0,1,25.05,5.78,81.24,81.24,0,0,1,8.5,5,2,2,0,0,0,2.63,0,56.11,56.11,0,0,1,29-10.59C276,91.75,289.34,95.47,301,104.34s19,20.32,21.77,34.57c3.47,17.88-.4,34.22-12,48.33-4.37,5.3-9.63,9.86-14.49,14.75-.27.27-.56.51-.83.78q-9.58,9.45-19.18,18.89-11.06,10.85-22.15,21.65l-21.25,20.76c-1.32,1.28-1.4,1.31-2.79.06-5.36-4.85-10.74-9.68-16.07-14.57-20.06-18.42-38.7-38.27-58.09-57.37a58,58,0,0,1-13-64.42,55.87,55.87,0,0,1,11.75-17.65A56.77,56.77,0,0,1,190.33,93C192.31,92.79,194.3,92.73,196.28,92.61Zm2.13,23.45c-12,.16-21.6,5-28.51,14.87A32.84,32.84,0,0,0,164,154a32.45,32.45,0,0,0,9.12,19.82c18.87,19,37.87,37.93,56.81,56.87,1.23,1.23,1.27,1.23,2.52,0q28.59-28.61,57.16-57.24a25.93,25.93,0,0,0,4.58-6.2c6.5-12.42,6.26-24.73-1.71-36.39-7.69-11.26-18.77-15.84-32.17-14.62a32.53,32.53,0,0,0-20.47,10c-5.23,5.25-10.45,10.5-15.73,15.7a10.4,10.4,0,0,1-14.58.44,10.2,10.2,0,0,1-.74-14.31c1.82-2.17,3.93-4.09,5.9-6.12,1-1,1-1.15-.2-1.82A32.83,32.83,0,0,0,198.41,116.06Z" style="fill:#fff"/><path d="M273.71,124.56a4.73,4.73,0,0,0-4.77,8.16A32.08,32.08,0,0,1,283,149.77a4.73,4.73,0,1,0,8.92-3.14A41.63,41.63,0,0,0,273.71,124.56Z" style="fill:#fff"/><rect x="493.88" y="115.18" width="6.94" height="117.34" transform="translate(268.6 -300.76) rotate(45)" style="fill:#fff"/><rect x="493.88" y="115.18" width="6.94" height="117.34" transform="translate(971.97 -54.9) rotate(135)" style="fill:#fff"/><path d="M803.2,82.4a95.27,95.27,0,0,1,37.37,182.89l-24-62.39a28.57,28.57,0,1,0-26.76,0l-24,62.39A95.27,95.27,0,0,1,803.2,82.4Z" style="fill:#fff"/></svg>